<svg xmlns="http://www.w3.org/2000/svg" viewBox="0 0 1351 331" preserveAspectRatio="xMidYMid meet">
<g transform="translate(185.702805,0) scale(0.622376172) translate(-229.809000,-757.907300)">
<g id="object-14"><path fill="rgb(236,172,105)" d="M 462.975 758.403 C 504.427 756.147 542.771 761.371 581.024 778.62 C 640.714 805.458 686.957 855.371 709.169 916.932 C 730.628 975.527 728.08 1040.22 702.079 1096.95 C 674.221 1156.77 623.408 1202.82 561.144 1224.67 C 503.414 1245.26 439.908 1242.37 384.292 1216.61 C 378.151 1214.06 369.915 1210.52 364.534 1206.8 C 345.455 1217.24 319.707 1234.06 300.967 1245.83 L 229.809 1289.74 C 236.198 1275.66 240.947 1261.11 246.597 1246.8 C 260.637 1211.23 272.56 1173.81 286.638 1138.45 C 260.901 1104.3 245.316 1063.58 241.672 1020.97 C 235.674 957.082 255.398 893.437 296.475 844.135 C 338.724 793.637 397.686 764.256 462.975 758.403 z M 380.038 1079.32 L 355.1 1079.21 C 356.729 1095.04 355.78 1123.32 355.984 1140.18 L 442.127 1140.5 C 469.717 1140.56 501.441 1141.79 528.092 1136.09 C 546.378 1132.06 563.788 1124.76 579.484 1114.55 C 638.225 1076.36 650.648 980.916 613.462 923.966 C 577.842 869.415 522.415 862.051 462.263 862.1 L 393.184 862.195 C 382.266 862.213 366.536 862.721 355.913 862.049 C 355.934 881.149 355.664 901.058 356.09 920.092 L 380.086 920.001 C 379.541 973.106 379.525 1026.21 380.038 1079.32 z" id="object-0"/><path fill="rgb(236,172,105)" d="M 487.93 983.223 C 508.449 980.587 523.603 990.475 536.133 1005.7 C 551.657 1024.56 562.4 1061.91 540.294 1079.75 C 528.688 1089.12 515.462 1083.9 502.621 1081.57 C 481.503 1079.71 467.211 1090.27 452.009 1081.29 C 445.027 1077.13 439.202 1069.38 437.727 1061.28 C 431.355 1026.28 453.693 991.387 487.93 983.223 z" id="object-1"/><path fill="rgb(236,172,105)" d="M 524.822 918.99 C 550.938 921.517 545.584 965.161 522.14 975.234 C 495.301 975.864 498.388 929.341 524.822 918.99 z" id="object-2"/><path fill="rgb(236,172,105)" d="M 461.236 918.982 C 485.48 922.297 496.515 961.838 472.74 975.07 C 446.381 972.762 438.044 926.439 461.236 918.982 z" id="object-3"/><path fill="rgb(236,172,105)" d="M 415.188 958.942 C 440.32 957.13 455.84 996.811 432.939 1011.08 C 407.477 1013.52 392.697 971.624 415.188 958.942 z" id="object-4"/><path fill="rgb(236,172,105)" d="M 564.483 959.095 C 594.662 955.331 588.846 997.523 566.919 1010.06 C 538.542 1016.57 541.602 972.545 564.483 959.095 z" id="object-5"/><path fill="rgb(87,70,52)" d="M 840.079 909.211 C 886.789 908.518 938.249 906.681 959.119 957.485 C 969.895 984.235 969.475 1014.19 957.999 1040.65 C 948.489 1063 936.439 1074.65 914.199 1083.53 C 882.769 1093.4 832.389 1088.59 798 1089.7 C 798.414 1081.88 798.436 1073.42 798.394 1065.57 C 798.11 1013.75 799.539 961.436 798.328 909.671 C 812.249 909.603 826.169 909.448 840.079 909.211 Z M 904.549 1039.65 C 915.769 1022.63 919.659 1001.82 915.379 981.899 C 906.409 941.404 874.979 949.492 845.929 947.016 C 845.709 981.426 845.079 1018.11 845.859 1052.41 C 869.769 1051.72 886.299 1056.38 904.549 1039.65 Z" style="stroke-width: 1;" id="object-6"/><path fill="rgb(87,70,52)" d="M 1279.72 929.59 C 1287.77 929.262 1296.51 929.461 1304.6 929.483 L 1304.35 957.644 C 1292.17 958.244 1289.67 959.54 1278.78 964.787 C 1280.7 967.011 1282.58 969.291 1284.36 971.633 C 1291.61 981.357 1292.88 991.17 1291.24 1002.93 C 1283.29 1059.88 1215.97 1033.28 1203.58 1044.07 C 1202.4 1045.11 1202.85 1046.07 1202.8 1047.51 C 1214.53 1066.16 1302.68 1037.51 1307.21 1086.07 C 1310.82 1124.6 1285.68 1140.82 1251.59 1143 C 1245.97 1143.99 1238.21 1143.69 1232.34 1144.05 C 1209.2 1145.47 1156.22 1146.05 1151.22 1115.37 C 1150.06 1107.91 1151.89 1100.3 1156.31 1094.19 C 1162.36 1085.95 1167.28 1084.94 1176.59 1083.49 C 1165.37 1075.52 1161.88 1072.93 1157.6 1059.7 C 1161.06 1044.59 1168.18 1037.65 1182.34 1031.51 C 1157.4 1015.49 1149.66 987.488 1174.42 966.1 C 1194.54 948.748 1227.43 951.653 1252.37 954.254 C 1258.49 941.887 1265.33 932.094 1279.72 929.59 Z M 1191.45 1098.97 C 1195.17 1106.21 1196.3 1108.88 1203.07 1113.85 C 1214.11 1114.06 1242.39 1114.97 1251.95 1113.44 C 1257.86 1110.05 1261.53 1108.35 1263.81 1101.9 C 1261.18 1085.97 1216.54 1088.97 1203.47 1090.17 C 1198.38 1093.4 1196.04 1094.85 1191.45 1098.97 Z M 1232.29 1014.05 C 1242.53 1009.59 1250.94 1000.55 1245.59 988.84 C 1243.64 984.703 1240.05 981.575 1235.68 980.233 C 1233.14 979.422 1228.37 978.751 1225.64 978.964 C 1197.89 983.221 1198.58 1014.8 1232.29 1014.05 Z" style="stroke-width: 1;" id="object-7"/><path fill="rgb(87,70,52)" d="M 1127.55 912.525 C 1137.35 924.356 1139.42 967.746 1138.62 983.449 C 1138.17 992.657 1135.83 1003.74 1135.72 1013.13 C 1135.51 1022.86 1138.87 1038.42 1136.41 1047.8 C 1127.38 1082.66 1083.88 1110.59 1048.01 1101.72 C 1026.43 1096.38 1004.59 1080.84 992.875 1063.34 C 983.445 1049.75 986.435 1028.06 985.525 1012.33 C 983.835 981.872 980.255 940.841 993.975 912.885 C 1009.52 924.601 1023.66 941.313 1035.55 956.789 C 1053.96 955.307 1067.72 954.857 1085.86 957.847 C 1095.56 945.419 1115.49 920.153 1127.55 912.525 Z M 1015.26 1070.33 C 1016.68 1058.04 1019.45 1048.44 1028.68 1039.28 C 1038.76 1030.46 1046.17 1024.7 1060.12 1024.36 C 1060.18 1005.28 1060.09 986.215 1059.85 967.148 C 1047.77 967.479 1037.23 967.986 1025.36 970.518 C 1018.57 957.847 1009.75 946.514 999.75 936.204 C 991.625 962.068 995.935 981.928 997.355 1007.7 C 999 1037.5 990.615 1047.79 1015.26 1070.33 Z M 1102.7 1028.99 C 1106.92 1026.83 1108.59 1021.67 1106.45 1017.46 C 1104.3 1013.24 1099.15 1011.56 1094.94 1013.69 C 1090.7 1015.84 1088.98 1021.01 1091.17 1025.24 C 1093.31 1029.47 1098.49 1031.15 1102.7 1028.99 Z M 1122.69 935.224 C 1113.16 944.899 1107.16 953.446 1100.15 965.049 C 1105.38 969.289 1112.4 974.631 1116.77 979.464 C 1119.95 983.4 1123.67 987.755 1126.59 991.816 C 1127.39 971.476 1126.88 955.427 1122.69 935.224 Z M 1070.6 1092.37 C 1127.73 1077.63 1091.05 1032.75 1059.69 1034.75 C 1016.88 1045.62 1010.61 1094.74 1070.6 1092.37 Z" style="stroke-width: 1;" id="object-8"/><path fill="rgb(87,70,52)" d="M 1022.16 1012.36 C 1027.12 1010.95 1032.29 1013.79 1033.76 1018.72 C 1035.19 1023.66 1032.4 1028.86 1027.48 1030.37 C 1022.52 1031.89 1017.23 1029.06 1015.75 1024.06 C 1014.25 1019.04 1017.14 1013.8 1022.16 1012.36 Z" style="stroke-width: 1;" id="object-9"/><path fill="rgb(87,70,52)" d="M 1054.78 1046.23 C 1061.78 1045.69 1075.24 1044.66 1079.68 1050.71 C 1079.76 1060.13 1069.06 1063.81 1067.61 1071.41 C 1070.74 1078.13 1075.57 1074.49 1083.18 1078.13 L 1083.13 1079.74 C 1077.82 1085.31 1076.8 1084.96 1068.97 1085.7 L 1062.32 1079.87 C 1056.14 1083.78 1047.79 1088.19 1042.94 1079.32 C 1044.48 1071.51 1050.68 1078.83 1056.72 1074.37 C 1059.18 1062.81 1044.61 1061.61 1047.52 1050.38 C 1050.27 1047.31 1050.61 1047.37 1054.78 1046.23 Z" style="stroke-width: 1;" id="object-10"/><path fill="rgb(87,70,52)" d="M 1332.32 909.581 C 1367.39 910.281 1405.81 906.823 1440.1 912.045 C 1484.83 918.849 1496.21 985.002 1466.53 1013.89 C 1452.52 1027.52 1437.01 1029.38 1418.59 1029.5 C 1406.05 1029.43 1393.48 1029.46 1380.94 1029.59 C 1380.58 1049.32 1380.74 1069.83 1380.64 1089.61 C 1364.65 1089.76 1348.63 1089.77 1332.62 1089.64 C 1330.88 1032.12 1332.1 967.474 1332.32 909.581 Z M 1381.8 993.269 C 1396.84 993.666 1413.03 995.696 1425.91 987.361 C 1430.52 981.565 1432.23 976.382 1432.18 968.975 C 1432.07 942.656 1399.88 946.595 1381.92 946.849 C 1381.88 962.185 1381.63 977.975 1381.8 993.269 Z" style="stroke-width: 1;" id="object-11"/><path fill="rgb(87,70,52)" d="M 1551.39 952.387 C 1566.14 951.087 1589.19 951.146 1603.01 956.919 C 1646.27 974.998 1619.87 1024.74 1633.72 1057.39 L 1634.37 1058.83 L 1647.88 1060.38 C 1647.93 1065.24 1648.39 1081.09 1646.95 1084.7 C 1642.39 1096.18 1614.55 1093.22 1605.76 1089.4 C 1596.13 1085.2 1593.38 1081.19 1590.06 1072.58 C 1569.58 1089.14 1547.53 1098.35 1521.14 1089.72 C 1497.68 1079.79 1487.98 1049.48 1504.13 1029.26 C 1520.14 1009.2 1559.81 1007.15 1584.39 1004.67 C 1583.37 993.12 1579.66 981.245 1564.58 982.197 C 1555.03 982.802 1550.35 989.276 1544.9 996.368 C 1530.29 996.507 1515.63 996.426 1500.98 996.88 C 1506.23 964.618 1520.86 956.85 1551.39 952.387 Z M 1552.09 1060.72 C 1560.88 1062.13 1566.21 1063.2 1574.49 1057.67 C 1582.54 1052.3 1588.59 1038.85 1582.83 1029.83 C 1582.12 1028.75 1577.43 1029.35 1575.99 1029.56 C 1564.58 1031.27 1543.54 1034.85 1541.53 1049.08 C 1542.61 1054.58 1547.18 1058.47 1552.09 1060.72 Z" style="stroke-width: 1;" id="object-12"/><path fill="rgb(87,70,52)" d="M 1748.14 952.375 C 1751.2 952.108 1754.29 951.981 1757.38 951.991 C 1808.28 952.189 1803.71 997.519 1803.63 1033.53 L 1803.53 1089.18 L 1758.36 1089.2 C 1757.84 1061.66 1760.65 1025.75 1755.79 998.435 C 1754.72 992.473 1747.56 989.673 1742.27 986.986 C 1729.18 987.554 1724.4 989.612 1715.86 999.82 C 1710.79 1011.54 1712.55 1072.47 1712.58 1089.14 L 1666.47 1089.2 C 1666.11 1044.49 1666.11 999.78 1666.47 955.072 C 1680.07 955.116 1693.66 955.339 1707.26 955.746 C 1707.56 962.668 1708.05 968.845 1708.67 975.75 C 1720.83 961.612 1729.2 955.013 1748.14 952.375 Z" style="stroke-width: 1;" id="object-13"/></g>
</g>
</svg>
